HIERARCHY
ROOT Hips
{
	OFFSET 0.00000 0.00000 0.00000
	CHANNELS 6 Xposition Yposition Zposition Zrotation Yrotation Xrotation 
	JOINT LHipJoint
	{
		OFFSET 0 0 0
		CHANNELS 3 Zrotation Yrotation Xrotation
		JOINT LeftUpLeg
		{
			OFFSET 1.29432 -1.88279 0.59910
			CHANNELS 3 Zrotation Yrotation Xrotation
			JOINT LeftLeg
			{
				OFFSET 2.63039 -7.22694 0.00000
				CHANNELS 3 Zrotation Yrotation Xrotation
				JOINT LeftFoot
				{
					OFFSET 2.70674 -7.43672 0.00000
					CHANNELS 3 Zrotation Yrotation Xrotation
					JOINT LeftToeBase
					{
						OFFSET 0.15066 -0.41394 2.09027
						CHANNELS 3 Zrotation Yrotation Xrotation
						End Site
						{
							OFFSET 0.00000 -0.00000 1.07518
						}
					}
				}
			}
		}
	}
	JOINT RHipJoint
	{
		OFFSET 0 0 0
		CHANNELS 3 Zrotation Yrotation Xrotation
		JOINT RightUpLeg
		{
			OFFSET -1.37068 -1.88279 0.59910
			CHANNELS 3 Zrotation Yrotation Xrotation
			JOINT RightLeg
			{
				OFFSET -2.57023 -7.06166 0.00000
				CHANNELS 3 Zrotation Yrotation Xrotation
				JOINT RightFoot
				{
					OFFSET -2.76461 -7.59570 0.00000
					CHANNELS 3 Zrotation Yrotation Xrotation
					JOINT RightToeBase
					{
						OFFSET -0.24175 -0.64785 2.19719
						CHANNELS 3 Zrotation Yrotation Xrotation
						End Site
						{
							OFFSET -0.00000 -0.00000 1.14803
						}
					}
				}
			}
		}
	}
	JOINT LowerBack
	{
		OFFSET 0 0 0
		CHANNELS 3 Zrotation Yrotation Xrotation
		JOINT Spine
		{
			OFFSET -0.03138 2.03983 -0.23106
			CHANNELS 3 Zrotation Yrotation Xrotation
			JOINT Spine1
			{
				OFFSET -0.00325 2.06238 -0.06878
				CHANNELS 3 Zrotation Yrotation Xrotation
				JOINT Neck
				{
					OFFSET 0 0 0
					CHANNELS 3 Zrotation Yrotation Xrotation
					JOINT Neck1
					{
						OFFSET -0.00002 1.75318 0.18090
						CHANNELS 3 Zrotation Yrotation Xrotation
						JOINT Head
						{
							OFFSET 0.08806 1.75856 -0.25387
							CHANNELS 3 Zrotation Yrotation Xrotation
							End Site
							{
								OFFSET 0.02554 1.78597 -0.10684
							}
						}
					}
				}
				JOINT LeftShoulder
				{
					OFFSET 0 0 0
					CHANNELS 3 Zrotation Yrotation Xrotation
					JOINT LeftArm
					{
						OFFSET 3.09657 1.33597 -0.04414
						CHANNELS 3 Zrotation Yrotation Xrotation
						JOINT LeftForeArm
						{
							OFFSET 5.34298 -0.00000 -0.00000
							CHANNELS 3 Zrotation Yrotation Xrotation
							JOINT LeftHand
							{
								OFFSET 3.67262 -0.00000 -0.00000
								CHANNELS 3 Zrotation Yrotation Xrotation
								JOINT LeftFingerBase
								{
									OFFSET 0 0 0
									CHANNELS 3 Zrotation Yrotation Xrotation
									JOINT LeftHandIndex1
									{
										OFFSET 0.59930 -0.00000 -0.00000
										CHANNELS 3 Zrotation Yrotation Xrotation
										End Site
										{
											OFFSET 0.48317 -0.00000 -0.00000
										}
									}
								}
								JOINT LThumb
								{
									OFFSET 0 0 0
									CHANNELS 3 Zrotation Yrotation Xrotation
									End Site
									{
										OFFSET 0.49055 -0.00000 0.49055
									}
								}
							}
						}
					}
				}
				JOINT RightShoulder
				{
					OFFSET 0 0 0
					CHANNELS 3 Zrotation Yrotation Xrotation
					JOINT RightArm
					{
						OFFSET -3.16460 1.32273 -0.23382
						CHANNELS 3 Zrotation Yrotation Xrotation
						JOINT RightForeArm
						{
							OFFSET -5.54967 -0.01834 0.03348
							CHANNELS 3 Zrotation Yrotation Xrotation
							JOINT RightHand
							{
								OFFSET -3.69401 -0.00000 0.00000
								CHANNELS 3 Zrotation Yrotation Xrotation
								JOINT RightFingerBase
								{
									OFFSET 0 0 0
									CHANNELS 3 Zrotation Yrotation Xrotation
									JOINT RightHandIndex1
									{
										OFFSET -0.63811 -0.00000 0.00000
										CHANNELS 3 Zrotation Yrotation Xrotation
										End Site
										{
											OFFSET -0.51446 -0.00000 0.00000
										}
									}
								}
								JOINT RThumb
								{
									OFFSET 0 0 0
									CHANNELS 3 Zrotation Yrotation Xrotation
									End Site
									{
										OFFSET -0.52232 -0.00000 0.52232
									}
								}
							}
						}
					}
				}
			}
		}
	}
}
MOTION
Frames: 7
Frame Time: .0083333
9.5336 16.4636 7.3901 0 0 0 0 0 0 -21 0 0 0 0 0 0 0 0 0 0 0 0 0 0 21 0 0 0 0 0 0 0 0 0 0 0 0 0 0 0 0 0 0 0 0 0 0 -16 0 0 21 0 0 11 0 0 0 -8 0 0 0 0 0 0 0 0 0 0 0 0 0 0 0 0 0 0 0 0 8 0 0 0 0 0 0 0 0 0 0 0 0 0 0 0 0 0
9.5336 16.4636 7.3901 93.2754 -86.7215 -91.9043 0.0000 0.0000 0.0000 -19.7289 -2.8494 -27.5248 11.3872 18.1194 64.0326 3.1063 -11.5430 -31.8324 0.0008 -0.1787 -0.4910 0.0000 0.0000 0.0000 16.5315 14.0907 -26.0509 -11.8765 -18.3379 65.5967 -3.1902 -0.8072 -34.1517 -1.0460 6.5039 -18.2536 -2.5270 -0.8481 7.9950 -0.9748 -1.4191 2.3989 0.5499 -0.7330 -1.9646 -6.4327 -5.8913 -11.1435 8.0682 -7.8957 9.1418 2.9201 -3.6081 5.1523 0.0000 0.0000 0.0000 -54.0457 -2.8450 -14.8004 30.0352 -40.9235 -11.4327 -0.0000 0.0000 -16.6923 23.3772 32.2465 12.9877 -7.1250 0.0000 -0.0000 -10.9411 64.1610 -5.1084 0.0000 0.0000 0.0000 63.0573 5.6369 -21.0813 -39.2177 47.5995 -17.8594 0.0000 -0.0000 -9.0707 -40.7526 29.3543 -22.9006 7.1250 -0.0000 -0.0000 -5.5670 6.4577 -6.1855
9.5051 16.6455 7.4058 92.4093 -87.2342 -90.9473 0.0000 0.0000 0.0000 -19.1286 -1.7438 -26.9211 10.7483 17.8097 61.9615 2.6843 -13.1535 -29.6364 0.0011 0.2104 0.5782 0.0000 0.0000 0.0000 16.8538 13.0353 -25.4222 -11.2533 -18.0568 63.6015 -2.9661 0.9157 -32.4047 -0.8458 5.8659 -16.3957 -1.9353 -0.8971 7.7149 -0.7651 -1.4186 2.2461 0.4304 -0.7287 -1.9762 -6.4713 -5.9188 -11.0778 7.9895 -7.9287 9.2657 2.8994 -3.6304 5.1802 -0.0000 0.0000 0.0000 -52.0554 -2.7361 -15.9768 30.7920 -41.5626 -11.9316 -0.0000 0.0000 -17.5662 22.9838 32.5289 12.8478 -7.1250 0.0000 -0.0000 -11.6277 64.3337 -5.4799 -0.0000 0.0000 0.0000 61.0251 5.4729 -22.8192 -40.5244 48.3775 -18.8303 0.0000 -0.0000 -9.2357 -42.1268 29.2285 -23.8273 7.1250 -0.0000 -0.0000 -6.3576 6.8492 -7.1120
9.4762 16.8300 7.4211 93.0678 -87.5143 -91.4147 0.0000 0.0000 0.0000 -18.7424 -0.5682 -26.5355 10.1934 17.5172 60.1327 2.1907 -14.7372 -27.0359 0.0167 0.8340 2.2921 0.0000 0.0000 0.0000 16.8223 12.1463 -24.9703 -10.7074 -17.7889 61.8277 -2.7021 2.7396 -30.4358 -0.7428 5.5057 -15.3568 -1.5197 -0.9460 7.3788 -0.6077 -1.4347 2.0378 0.3565 -0.7325 -2.0103 -6.7327 -5.9821 -11.1860 7.9647 -7.9888 9.6426 2.9224 -3.6632 5.3288 -0.0000 -0.0000 0.0000 -50.1410 -2.4486 -16.9353 31.6923 -42.3005 -12.5332 -0.0000 0.0000 -18.6025 24.3839 32.6532 13.7430 -7.1250 0.0000 -0.0000 -10.0323 64.8448 -4.8393 -0.0000 -0.0000 0.0000 58.5820 5.8978 -25.0021 -40.2698 48.2290 -18.6402 0.0000 -0.0000 -8.7897 -43.8160 30.8161 -26.1758 7.1250 -0.0000 -0.0000 -6.8473 9.3492 -7.9209
9.4474 16.9985 7.4353 97.4468 -87.4935 -95.4522 0.0000 0.0000 0.0000 -18.6224 0.7913 -26.4634 9.6754 17.2232 58.3979 1.6592 -15.8712 -24.0678 0.0262 1.0455 2.8739 0.0000 0.0000 0.0000 16.4336 11.5655 -24.6912 -10.1958 -17.5185 60.1408 -2.3660 4.2035 -28.1183 -0.8076 5.7350 -16.0175 -1.6042 -1.0312 6.8132 -0.3577 -1.5299 1.7838 0.6603 -0.7748 -1.9468 -7.3235 -5.8644 -11.2334 7.9468 -7.7575 10.1113 3.0292 -3.5670 5.4870 -0.0000 -0.0000 0.0000 -48.5860 -1.7897 -18.1534 32.7515 -43.1381 -13.2518 -0.0000 0.0000 -18.8934 24.4455 33.3203 14.0205 -7.1250 0.0000 -0.0000 -10.4801 65.5277 -5.2231 -0.0000 -0.0000 0.0000 56.0364 6.1579 -26.5411 -40.9165 48.6036 -19.1239 0.0000 -0.0000 -9.0676 -44.0368 31.5483 -26.8355 7.1250 -0.0000 -0.0000 -6.7578 10.2696 -7.9045
9.4218 17.1868 7.4473 101.9740 -87.3395 -99.6487 0.0000 0.0000 0.0000 -18.5833 2.0040 -26.3175 9.1678 16.9145 56.6688 1.1211 -16.9767 -20.8979 0.0340 1.1896 3.2705 0.0000 0.0000 0.0000 15.8230 11.0901 -24.3782 -9.7055 -17.2409 58.4994 -1.9761 6.5328 -25.3110 -0.6116 5.0055 -13.9244 -2.0503 -1.1771 6.3095 -0.0393 -1.7301 1.5235 1.2450 -0.8682 -1.9066 -7.6497 -5.5106 -10.9237 7.7597 -7.2199 10.1444 3.0808 -3.3360 5.4072 0.0000 0.0000 0.0000 -47.0830 -0.9784 -19.6599 33.6732 -43.8412 -13.8862 -0.0000 0.0000 -18.8339 23.7835 33.5296 13.6816 -7.1250 0.0000 -0.0000 -11.4670 65.5467 -5.7256 0.0000 0.0000 0.0000 53.6690 6.5047 -27.7012 -42.3642 49.4099 -20.2167 0.0000 -0.0000 -9.3158 -43.9132 31.1004 -26.4415 7.1250 -0.0000 -0.0000 -6.8194 9.7122 -7.9236
9.4003 17.3853 7.4573 103.8460 -87.3131 -101.2590 0.0000 0.0000 0.0000 -18.3502 2.8710 -26.0400 8.6738 16.5931 54.9549 0.5761 -18.0497 -17.4596 0.0649 1.6433 4.5210 0.0000 0.0000 0.0000 15.3062 10.2866 -24.1135 -9.2231 -16.9492 56.8585 -1.5430 8.4384 -22.2395 -0.6334 5.0922 -14.1717 -2.0550 -1.0433 6.0335 -0.0905 -1.5447 1.3080 1.1775 -0.7711 -1.9825 -6.9592 -5.4990 -10.7534 7.3752 -7.2805 10.1926 2.8469 -3.3684 5.3580 -0.0000 -0.0000 0.0000 -44.7754 -1.0963 -20.3579 34.3971 -44.3768 -14.3900 -0.0000 0.0000 -19.0796 24.0842 32.8522 13.6301 -7.1250 0.0000 -0.0000 -10.5517 64.9596 -5.1205 -0.0000 -0.0000 0.0000 51.7579 6.4991 -29.7260 -43.3955 49.9578 -21.0031 0.0000 -0.0000 -8.9322 -43.9597 31.0072 -26.4169 7.1250 -0.0000 -0.0000 -6.8707 9.6270 -7.9757
